<?xml version="1.0" encoding="UTF-8"?>
<!DOCTYPE svg PUBLIC "-//W3C//DTD SVG 1.1//EN" "http://www.w3.org/Graphics/SVG/1.1/DTD/svg11.dtd">
<svg xmlns="http://www.w3.org/2000/svg" version="1.1" width="186px" height="55px" style="shape-rendering:geometricPrecision; text-rendering:geometricPrecision; image-rendering:optimizeQuality; fill-rule:evenodd; clip-rule:evenodd" xmlns:xlink="http://www.w3.org/1999/xlink">
<g><path style="opacity:0.888" fill="#00000" d="M 19.5,-0.5 C 24.5,-0.5 29.5,-0.5 34.5,-0.5C 54.5611,9.37138 59.3944,24.3714 49,44.5C 44.7917,48.8975 39.9584,52.2308 34.5,54.5C 29.5,54.5 24.5,54.5 19.5,54.5C 9.83333,50.8333 3.16667,44.1667 -0.5,34.5C -0.5,29.5 -0.5,24.5 -0.5,19.5C 3.16667,9.83333 9.83333,3.16667 19.5,-0.5 Z M 19.5,8.5 C 28.3749,10.07 36.8749,12.7366 45,16.5C 45.81,23.0816 45.6433,29.5816 44.5,36C 41.688,36.4657 39.0213,35.9657 36.5,34.5C 35.8625,30.3004 35.1959,26.1337 34.5,22C 29.4647,20.5992 24.4647,19.0992 19.5,17.5C 18.2588,14.463 18.2588,11.463 19.5,8.5 Z M 8.5,16.5 C 11.1889,17.0382 13.8556,17.7049 16.5,18.5C 17.3253,22.1224 17.8253,25.789 18,29.5C 18.3076,30.3081 18.8076,30.9747 19.5,31.5C 24.3831,33.304 29.3831,34.6373 34.5,35.5C 34.5,38.5 34.5,41.5 34.5,44.5C 25.6852,43.1296 17.0186,41.1296 8.5,38.5C 7.22653,31.1626 7.22653,23.8292 8.5,16.5 Z"/></g>
<g><path style="opacity:0.857" fill="#00000" d="M 99.5,10.5 C 107.181,10.354 111.681,14.0207 113,21.5C 113.751,26.5715 113.418,31.5715 112,36.5C 110.833,39 109,40.8333 106.5,42C 98.262,44.5996 92.4287,42.0996 89,34.5C 88.3333,29.1667 88.3333,23.8333 89,18.5C 90.846,13.5094 94.346,10.8427 99.5,10.5 Z M 98.5,18.5 C 102.162,17.6371 104.328,18.9704 105,22.5C 105.717,26.0449 105.55,29.5449 104.5,33C 102.187,36.0372 99.6866,36.2039 97,33.5C 95.9548,28.2145 96.4548,23.2145 98.5,18.5 Z"/></g>
<g><path style="opacity:0.836" fill="#00000" d="M 185.5,12.5 C 185.5,14.5 185.5,16.5 185.5,18.5C 182.272,18.7006 179.105,18.3672 176,17.5C 174.605,17.7804 173.438,18.4471 172.5,19.5C 176.999,22.2505 181.333,25.2505 185.5,28.5C 185.5,31.8333 185.5,35.1667 185.5,38.5C 183.99,39.8361 182.323,41.0027 180.5,42C 175.833,42.6667 171.167,42.6667 166.5,42C 165.577,39.9592 165.244,37.7925 165.5,35.5C 169.5,35.5 173.5,35.5 177.5,35.5C 177.703,33.6096 177.037,32.1096 175.5,31C 172.059,29.224 168.892,27.0574 166,24.5C 163.004,15.4786 166.338,10.812 176,10.5C 179.243,11.0108 182.409,11.6775 185.5,12.5 Z"/></g>
<g><path style="opacity:0.854" fill="#00000" d="M 65.5,11.5 C 72.8333,11.5 80.1667,11.5 87.5,11.5C 88.8333,17.5 86.5,19.8333 80.5,18.5C 80.5,26.5 80.5,34.5 80.5,42.5C 77.8333,42.5 75.1667,42.5 72.5,42.5C 72.5,34.5 72.5,26.5 72.5,18.5C 70.1667,18.5 67.8333,18.5 65.5,18.5C 65.5,16.1667 65.5,13.8333 65.5,11.5 Z"/></g>
<g><path style="opacity:0.901" fill="#00000" d="M 113.5,11.5 C 121.167,11.5 128.833,11.5 136.5,11.5C 137.594,17.9049 134.927,20.2382 128.5,18.5C 128.5,26.5 128.5,34.5 128.5,42.5C 126.167,42.5 123.833,42.5 121.5,42.5C 121.5,34.5 121.5,26.5 121.5,18.5C 115.073,20.2382 112.406,17.9049 113.5,11.5 Z"/></g>
<g><path style="opacity:0.85" fill="#00000" d="M 137.5,11.5 C 140.167,11.5 142.833,11.5 145.5,11.5C 146.85,18.9013 148.517,26.2347 150.5,33.5C 152.676,26.2875 154.343,18.9542 155.5,11.5C 158.167,11.5 160.833,11.5 163.5,11.5C 161.811,21.2584 159.644,30.9251 157,40.5C 153.817,42.5234 150.317,43.0234 146.5,42C 145.333,41.5 144.5,40.6667 144,39.5C 141.2,30.3001 139.033,20.9668 137.5,11.5 Z"/></g>
</svg>
