<?xml version="1.0" standalone="no"?>
<!DOCTYPE svg PUBLIC "-//W3C//DTD SVG 20010904//EN"
 "http://www.w3.org/TR/2001/REC-SVG-20010904/DTD/svg10.dtd">
<svg version="1.0" xmlns="http://www.w3.org/2000/svg"
 width="140.000000pt" height="46.000000pt" viewBox="0 0 74.000000 46.000000"
 preserveAspectRatio="xMidYMid meet">

<g transform="translate(0.000000,46.000000) scale(0.100000,-0.100000)"
fill="#000000" stroke="none">
<path d="M140 444 c-73 -32 -127 -107 -136 -192 -3 -26 -2 -57 3 -70 8 -22 15
-17 103 80 52 57 100 104 107 106 10 3 13 -29 13 -152 0 -97 -4 -156 -10 -156
-5 0 -10 26 -10 58 0 78 -8 86 -74 87 -50 1 -59 -2 -87 -31 -29 -30 -30 -33
-16 -60 69 -133 274 -155 377 -42 27 29 28 30 35 9 8 -28 55 -51 100 -51 86 0
129 113 67 173 -15 15 -33 27 -40 27 -19 0 -15 11 23 67 19 29 35 55 35 58 0
3 -43 5 -96 5 -61 0 -93 -4 -89 -10 3 -5 37 -10 76 -10 42 0 69 -4 69 -11 0
-6 -14 -30 -30 -54 -16 -24 -30 -46 -30 -49 0 -2 13 -7 30 -11 33 -7 70 -48
70 -77 0 -66 -72 -113 -130 -83 -17 9 -36 27 -42 40 -6 13 -15 22 -19 19 -5
-3 -9 13 -9 36 0 34 -4 42 -26 50 -14 6 -50 10 -80 10 l-54 0 0 -75 c0 -43 -4
-75 -10 -75 -6 0 -10 58 -10 155 l0 155 87 0 86 0 -24 26 c-57 62 -176 84
-259 48z"/>
<path d="M270 308 c0 -69 18 -88 84 -88 76 0 121 62 82 115 -11 16 -30 20 -90
23 l-76 4 0 -54z"/>
<path d="M153 290 c-29 -32 -53 -61 -53 -64 0 -3 25 -6 55 -6 l55 0 0 65 c0
36 -1 65 -2 64 -2 0 -27 -26 -55 -59z"/>
<path d="M462 263 c-1 -7 -11 -21 -22 -31 -18 -17 -19 -20 -5 -32 8 -7 15 -24
16 -39 l0 -26 10 25 c6 13 8 45 6 70 -2 25 -4 40 -5 33z"/>
</g>
</svg>
