<?xml version="1.0" encoding="UTF-8"?>
<!DOCTYPE svg PUBLIC "-//W3C//DTD SVG 1.1//EN" "http://www.w3.org/Graphics/SVG/1.1/DTD/svg11.dtd">
<svg xmlns="http://www.w3.org/2000/svg" version="1.1" width="329px" height="90px" style="shape-rendering:geometricPrecision; text-rendering:geometricPrecision; image-rendering:optimizeQuality; fill-rule:evenodd; clip-rule:evenodd" xmlns:xlink="http://www.w3.org/1999/xlink">
<g><path style="opacity:0.639" fill="#000000" d="M 314.5,19.5 C 315.398,18.8423 316.398,18.1757 317.5,17.5C 316.965,15.7295 316.131,15.3961 315,16.5C 314.44,10.0393 313.44,10.0393 312,16.5C 311.506,14.8659 311.34,13.1992 311.5,11.5C 314.588,7.54189 317.755,7.54189 321,11.5C 322.458,17.5229 320.291,20.1896 314.5,19.5 Z"/></g>
<g><path style="opacity:0.455" fill="#000000" d="M 311.5,11.5 C 311.34,13.1992 311.506,14.8659 312,16.5C 313.44,10.0393 314.44,10.0393 315,16.5C 316.131,15.3961 316.965,15.7295 317.5,17.5C 316.398,18.1757 315.398,18.8423 314.5,19.5C 311.45,18.7582 309.783,16.7582 309.5,13.5C 309.855,12.4777 310.522,11.811 311.5,11.5 Z"/></g>
<g><path style="opacity:0.725" fill="#000000" d="M 56.5,23.5 C 46.9162,22.5268 37.2496,22.1935 27.5,22.5C 27.5,38.5 27.5,54.5 27.5,70.5C 26.3385,54.3385 26.1718,38.0052 27,21.5C 36.4223,20.3491 45.9223,20.1824 55.5,21C 56.2524,21.6708 56.5858,22.5041 56.5,23.5 Z"/></g>
<g><path style="opacity:0.74" fill="#000000" d="M 80.5,30.5 C 80.5,27.8333 80.5,25.1667 80.5,22.5C 75.5,22.5 70.5,22.5 65.5,22.5C 65.5,22.1667 65.5,21.8333 65.5,21.5C 70.6803,20.1853 76.0136,20.1853 81.5,21.5C 82.0634,22.9385 82.3968,24.4385 82.5,26C 82.6932,28.0081 82.0265,29.5081 80.5,30.5 Z"/></g>
<g><path style="opacity:0.719" fill="#000000" d="M 161.5,22.5 C 147.459,21.8514 133.792,22.5181 120.5,24.5C 120.167,24.5 119.833,24.5 119.5,24.5C 118.316,23.3121 118.316,22.1455 119.5,21C 131.833,20.3333 144.167,20.3333 156.5,21C 158.382,21.1981 160.048,21.6981 161.5,22.5 Z"/></g>
<g><path style="opacity:0.731" fill="#000000" d="M 208.5,26.5 C 206.896,25.713 206.229,24.3797 206.5,22.5C 197.416,22.1956 188.416,22.5289 179.5,23.5C 179.414,22.5041 179.748,21.6708 180.5,21C 189.167,20.3333 197.833,20.3333 206.5,21C 207.861,22.5843 208.528,24.4176 208.5,26.5 Z"/></g>
<g><path style="opacity:0.106" fill="#000000" d="M 2.5,21.5 C 2.16667,21.5 1.83333,21.5 1.5,21.5C 0.166667,21.8333 0.166667,22.1667 1.5,22.5C 1.5,38.5 1.5,54.5 1.5,70.5C 0.833333,70.5 0.166667,70.5 -0.5,70.5C -0.5,68.8333 -0.5,67.1667 -0.5,65.5C 0.833333,62.1667 0.833333,58.8333 -0.5,55.5C -0.5,43.5 -0.5,31.5 -0.5,19.5C 1.12271,18.5092 2.12271,19.1759 2.5,21.5 Z"/></g>
<g><path style="opacity:1" fill="#000000" d="M 1.5,22.5 C 7.5,22.5 13.5,22.5 19.5,22.5C 19.5,38.5 19.5,54.5 19.5,70.5C 13.5,70.5 7.5,70.5 1.5,70.5C 1.5,54.5 1.5,38.5 1.5,22.5 Z"/></g>
<g><path style="opacity:1" fill="#000000" d="M 56.5,23.5 C 56.5,23.8333 56.5,24.1667 56.5,24.5C 56.7234,28.1621 57.7234,31.4954 59.5,34.5C 60.4511,35.9187 60.7845,37.5853 60.5,39.5C 60.4095,42.1522 61.0762,44.4855 62.5,46.5C 62.4081,50.059 63.2415,53.3924 65,56.5C 65.4999,45.1716 65.6665,33.8382 65.5,22.5C 70.5,22.5 75.5,22.5 80.5,22.5C 80.5,25.1667 80.5,27.8333 80.5,30.5C 80.6716,31.4916 80.3382,32.1583 79.5,32.5C 78.0937,32.9731 77.427,33.9731 77.5,35.5C 77.4431,36.609 77.1098,37.609 76.5,38.5C 74.9827,40.4621 74.3161,42.7954 74.5,45.5C 74.3817,48.4857 75.0483,51.1524 76.5,53.5C 77.3627,55.4214 78.0293,57.4214 78.5,59.5C 78.427,61.0269 79.0937,62.0269 80.5,62.5C 80.427,64.0269 81.0937,65.0269 82.5,65.5C 83.5,66.1667 84.5,66.8333 85.5,67.5C 85.5774,68.7498 86.244,69.5831 87.5,70C 75.7574,70.8106 64.0907,70.6439 52.5,69.5C 52.5,69.1667 52.5,68.8333 52.5,68.5C 52.9465,65.9899 52.2798,63.9899 50.5,62.5C 50.7062,59.5049 50.0395,56.8383 48.5,54.5C 47.5334,48.3669 46.0334,42.3669 44,36.5C 43.5001,47.8284 43.3335,59.1618 43.5,70.5C 38.1667,71.8333 32.8333,71.8333 27.5,70.5C 27.5,54.5 27.5,38.5 27.5,22.5C 37.2496,22.1935 46.9162,22.5268 56.5,23.5 Z"/></g>
<g><path style="opacity:0.358" fill="#000000" d="M 65.5,21.5 C 65.5,21.8333 65.5,22.1667 65.5,22.5C 65.6665,33.8382 65.4999,45.1716 65,56.5C 63.2415,53.3924 62.4081,50.059 62.5,46.5C 63.2679,47.2625 63.7679,48.2625 64,49.5C 64.1701,39.991 64.6701,30.6577 65.5,21.5 Z"/></g>
<g><path style="opacity:1" fill="#000000" d="M 161.5,22.5 C 166.328,23.3313 169.662,25.9979 171.5,30.5C 171.605,34.5483 171.272,38.5483 170.5,42.5C 169.5,42.8333 168.833,43.5 168.5,44.5C 168.167,45.5 167.5,46.1667 166.5,46.5C 159.516,47.7181 159.183,49.0514 165.5,50.5C 166.167,50.5 166.5,50.8333 166.5,51.5C 169.03,55.3434 170.363,54.6768 170.5,49.5C 171.458,47.6976 172.125,45.6976 172.5,43.5C 174.584,40.1987 175.918,36.532 176.5,32.5C 176.5,32.1667 176.5,31.8333 176.5,31.5C 178.655,29.3826 179.655,26.716 179.5,23.5C 188.416,22.5289 197.416,22.1956 206.5,22.5C 206.229,24.3797 206.896,25.713 208.5,26.5C 209.11,27.391 209.443,28.391 209.5,29.5C 209.345,32.716 210.345,35.3826 212.5,37.5C 212.5,37.8333 212.5,38.1667 212.5,38.5C 212.66,40.153 213.326,41.4863 214.5,42.5C 214.756,45.5979 215.422,48.5979 216.5,51.5C 216.369,52.3764 216.702,53.0431 217.5,53.5C 218.499,43.1881 218.832,32.8548 218.5,22.5C 227.5,22.5 236.5,22.5 245.5,22.5C 245.402,24.5529 246.069,26.2196 247.5,27.5C 248.461,29.2646 248.795,31.2646 248.5,33.5C 248.41,36.1522 249.076,38.4855 250.5,40.5C 251.434,41.5676 251.768,42.901 251.5,44.5C 251.343,45.8734 251.51,47.2068 252,48.5C 253.31,44.9296 254.143,41.263 254.5,37.5C 255.924,35.4855 256.59,33.1522 256.5,30.5C 256.5,30.1667 256.5,29.8333 256.5,29.5C 257.612,27.4006 258.279,25.0673 258.5,22.5C 267.5,22.5 276.5,22.5 285.5,22.5C 285.5,38.5 285.5,54.5 285.5,70.5C 280.167,70.5 274.833,70.5 269.5,70.5C 269.667,58.1622 269.5,45.8288 269,33.5C 267.228,37.313 266.395,41.313 266.5,45.5C 265.883,45.6107 265.383,45.944 265,46.5C 264.505,48.4727 264.338,50.4727 264.5,52.5C 263.087,55.2186 262.42,58.2186 262.5,61.5C 262.44,64.3408 261.774,67.0075 260.5,69.5C 254.591,70.4553 248.591,70.7886 242.5,70.5C 242.5,69.8333 242.5,69.1667 242.5,68.5C 242.706,65.5049 242.04,62.8383 240.5,60.5C 239.232,58.0948 238.565,55.4282 238.5,52.5C 238.086,46.5077 236.586,40.841 234,35.5C 233.5,47.1619 233.333,58.8286 233.5,70.5C 222.909,71.1047 212.575,70.4381 202.5,68.5C 202.682,66.4086 202.348,64.4086 201.5,62.5C 195.833,61.1667 190.167,61.1667 184.5,62.5C 183.215,65.0205 182.548,67.6872 182.5,70.5C 172.833,70.5 163.167,70.5 153.5,70.5C 153.784,68.5853 153.451,66.9187 152.5,65.5C 151.699,63.9582 151.366,62.2915 151.5,60.5C 151.631,57.6333 150.297,55.9666 147.5,55.5C 145.5,55.5 143.5,55.5 141.5,55.5C 140.513,60.3054 140.179,65.3054 140.5,70.5C 133.825,70.6663 127.158,70.4996 120.5,70C 122.32,69.7996 123.653,68.9663 124.5,67.5C 125.937,66.2745 127.604,65.2745 129.5,64.5C 130.466,62.604 130.799,60.604 130.5,58.5C 130.706,55.5049 130.04,52.8383 128.5,50.5C 127.434,48.2986 126.767,45.9653 126.5,43.5C 126.5,42.5 126.5,41.5 126.5,40.5C 124.585,40.2155 122.919,40.5489 121.5,41.5C 121.167,41.5 120.833,41.5 120.5,41.5C 117.848,41.4095 115.515,42.0762 113.5,43.5C 108.985,43.5167 108.318,45.1834 111.5,48.5C 112.714,51.7331 113.214,55.0664 113,58.5C 109.033,60.9783 105.199,60.9783 101.5,58.5C 101.027,57.0937 100.027,56.427 98.5,56.5C 94.5766,51.3158 93.5766,45.6491 95.5,39.5C 96.9063,39.0269 97.573,38.0269 97.5,36.5C 98.5,36.1667 99.1667,35.5 99.5,34.5C 101.404,34.2624 102.738,33.2624 103.5,31.5C 103.833,31.5 104.167,31.5 104.5,31.5C 106.898,31.7406 108.898,31.0739 110.5,29.5C 114.226,29.8226 117.893,29.4892 121.5,28.5C 120.754,27.2638 120.421,25.9305 120.5,24.5C 133.792,22.5181 147.459,21.8514 161.5,22.5 Z M 144.5,33.5 C 145.5,33.5 146.5,33.5 147.5,33.5C 148.514,34.6737 149.847,35.3404 151.5,35.5C 151.55,41.342 148.55,43.6753 142.5,42.5C 142.091,39.1445 142.758,36.1445 144.5,33.5 Z M 194.5,38.5 C 194.595,40.7857 195.262,42.7857 196.5,44.5C 196.157,48.4377 194.157,49.4377 190.5,47.5C 189.614,46.675 189.281,45.675 189.5,44.5C 190.404,43.791 190.737,42.791 190.5,41.5C 191.558,40.3998 192.392,39.0664 193,37.5C 193.383,38.056 193.883,38.3893 194.5,38.5 Z M 172.5,43.5 C 171.833,43.8333 171.167,44.1667 170.5,44.5C 170.5,43.8333 170.5,43.1667 170.5,42.5C 171.967,39.7417 172.633,40.075 172.5,43.5 Z M 168.5,44.5 C 169.167,44.5 169.833,44.5 170.5,44.5C 170.5,46.1667 170.5,47.8333 170.5,49.5C 169.395,50.6005 168.062,51.2671 166.5,51.5C 166.5,50.8333 166.167,50.5 165.5,50.5C 165.433,49.0413 165.766,47.7079 166.5,46.5C 167.5,46.1667 168.167,45.5 168.5,44.5 Z"/></g>
<g><path style="opacity:0.104" fill="#000000" d="M 217.5,21.5 C 217.827,31.6806 217.494,41.6806 216.5,51.5C 215.422,48.5979 214.756,45.5979 214.5,42.5C 215.268,41.7375 215.768,40.7375 216,39.5C 216.172,33.3193 216.672,27.3193 217.5,21.5 Z"/></g>
<g><path style="opacity:0.792" fill="#000000" d="M 247.5,27.5 C 246.069,26.2196 245.402,24.5529 245.5,22.5C 236.5,22.5 227.5,22.5 218.5,22.5C 218.832,32.8548 218.499,43.1881 217.5,53.5C 216.702,53.0431 216.369,52.3764 216.5,51.5C 217.494,41.6806 217.827,31.6806 217.5,21.5C 226.657,20.3424 235.991,20.1757 245.5,21C 247.016,22.897 247.683,25.0637 247.5,27.5 Z"/></g>
<g><path style="opacity:0.816" fill="#000000" d="M 286.5,21.5 C 286.83,38.0085 286.496,54.3419 285.5,70.5C 285.5,54.5 285.5,38.5 285.5,22.5C 276.5,22.5 267.5,22.5 258.5,22.5C 258.5,22.1667 258.5,21.8333 258.5,21.5C 267.833,20.1667 277.167,20.1667 286.5,21.5 Z"/></g>
<g><path style="opacity:0.195" fill="#000000" d="M 286.5,21.5 C 287.497,37.9916 287.83,54.6583 287.5,71.5C 281.31,71.8229 275.31,71.4896 269.5,70.5C 274.833,70.5 280.167,70.5 285.5,70.5C 286.496,54.3419 286.83,38.0085 286.5,21.5 Z"/></g>
<g><path style="opacity:0.584" fill="#000000" d="M 258.5,21.5 C 258.5,21.8333 258.5,22.1667 258.5,22.5C 258.279,25.0673 257.612,27.4006 256.5,29.5C 256.294,26.5049 256.96,23.8383 258.5,21.5 Z"/></g>
<g><path style="opacity:0.314" fill="#000000" d="M 309.5,27.5 C 309.739,25.5328 309.406,23.6995 308.5,22C 305.445,21.3658 302.445,21.5325 299.5,22.5C 302.455,19.7647 305.788,19.2647 309.5,21C 310.811,23.2735 310.811,25.4402 309.5,27.5 Z"/></g>
<g><path style="opacity:1" fill="#000000" d="M 309.5,27.5 C 309.5,27.8333 309.5,28.1667 309.5,28.5C 306.592,29.5691 303.592,29.7358 300.5,29C 299.577,26.9592 299.244,24.7925 299.5,22.5C 302.445,21.5325 305.445,21.3658 308.5,22C 309.406,23.6995 309.739,25.5328 309.5,27.5 Z"/></g>
<g><path style="opacity:0.066" fill="#000000" d="M 301.5,23.5 C 303.977,23.0508 305.977,23.7175 307.5,25.5C 306.307,27.3837 304.641,27.8837 302.5,27C 301.663,25.9887 301.33,24.8221 301.5,23.5 Z"/></g>
<g><path style="opacity:0.257" fill="#000000" d="M 119.5,24.5 C 119.833,24.5 120.167,24.5 120.5,24.5C 120.421,25.9305 120.754,27.2638 121.5,28.5C 117.893,29.4892 114.226,29.8226 110.5,29.5C 112.893,28.79 115.393,28.1233 118,27.5C 118.333,27.8333 118.667,28.1667 119,28.5C 119.49,27.2068 119.657,25.8734 119.5,24.5 Z"/></g>
<g><path style="opacity:0.843" fill="#000000" d="M 179.5,23.5 C 179.655,26.716 178.655,29.3826 176.5,31.5C 176.733,28.4582 177.733,25.7916 179.5,23.5 Z"/></g>
<g><path style="opacity:0.669" fill="#000000" d="M 1.5,70.5 C 7.5,70.5 13.5,70.5 19.5,70.5C 19.5,54.5 19.5,38.5 19.5,22.5C 13.5,22.5 7.5,22.5 1.5,22.5C 1.5,22.1667 1.5,21.8333 1.5,21.5C 1.83333,21.5 2.16667,21.5 2.5,21.5C 8.52927,21.5745 14.5293,21.2412 20.5,20.5C 20.5,37.5 20.5,54.5 20.5,71.5C 13.9779,71.8235 7.6446,71.4902 1.5,70.5 Z"/></g>
<g><path style="opacity:0.635" fill="#000000" d="M 56.5,24.5 C 58.2766,27.5046 59.2766,30.8379 59.5,34.5C 57.7234,31.4954 56.7234,28.1621 56.5,24.5 Z"/></g>
<g><path style="opacity:0.992" fill="#000000" d="M 110.5,29.5 C 108.898,31.0739 106.898,31.7406 104.5,31.5C 106.102,29.9261 108.102,29.2594 110.5,29.5 Z"/></g>
<g><path style="opacity:0.616" fill="#000000" d="M 103.5,31.5 C 102.738,33.2624 101.404,34.2624 99.5,34.5C 100.262,32.7376 101.596,31.7376 103.5,31.5 Z"/></g>
<g><path style="opacity:0.765" fill="#000000" d="M 209.5,29.5 C 211.02,31.8902 212.02,34.5568 212.5,37.5C 210.345,35.3826 209.345,32.716 209.5,29.5 Z"/></g>
<g><path style="opacity:0.037" fill="#000000" d="M 144.5,33.5 C 142.758,36.1445 142.091,39.1445 142.5,42.5C 148.55,43.6753 151.55,41.342 151.5,35.5C 154.134,37.54 154.134,39.7067 151.5,42C 148.312,43.3158 144.978,43.8158 141.5,43.5C 141.5,40.1667 141.5,36.8333 141.5,33.5C 142.5,33.5 143.5,33.5 144.5,33.5 Z"/></g>
<g><path style="opacity:0.212" fill="#000000" d="M 79.5,32.5 C 79.573,34.0269 78.9063,35.0269 77.5,35.5C 77.427,33.9731 78.0937,32.9731 79.5,32.5 Z"/></g>
<g><path style="opacity:0.098" fill="#000000" d="M 147.5,33.5 C 149.38,33.2291 150.713,33.8958 151.5,35.5C 149.847,35.3404 148.514,34.6737 147.5,33.5 Z"/></g>
<g><path style="opacity:0.318" fill="#000000" d="M 99.5,34.5 C 99.1667,35.5 98.5,36.1667 97.5,36.5C 97.5,35.1667 98.1667,34.5 99.5,34.5 Z"/></g>
<g><path style="opacity:0.016" fill="#000000" d="M 194.5,38.5 C 193.883,38.3893 193.383,38.056 193,37.5C 192.392,39.0664 191.558,40.3998 190.5,41.5C 190.618,38.3117 191.451,35.3117 193,32.5C 194.128,34.3453 194.628,36.3453 194.5,38.5 Z"/></g>
<g><path style="opacity:0.098" fill="#000000" d="M 269.5,70.5 C 268.67,61.3423 268.17,52.009 268,42.5C 267.768,43.7375 267.268,44.7375 266.5,45.5C 266.395,41.313 267.228,37.313 269,33.5C 269.5,45.8288 269.667,58.1622 269.5,70.5 Z"/></g>
<g><path style="opacity:0.317" fill="#000000" d="M 238.5,52.5 C 236.738,49.4965 235.572,46.1632 235,42.5C 234.5,52.1609 234.334,61.8276 234.5,71.5C 223.833,71.5 213.167,71.5 202.5,71.5C 202.5,70.5 202.5,69.5 202.5,68.5C 212.575,70.4381 222.909,71.1047 233.5,70.5C 233.333,58.8286 233.5,47.1619 234,35.5C 236.586,40.841 238.086,46.5077 238.5,52.5 Z"/></g>
<g><path style="opacity:0.51" fill="#000000" d="M 256.5,30.5 C 256.59,33.1522 255.924,35.4855 254.5,37.5C 254.41,34.8478 255.076,32.5145 256.5,30.5 Z"/></g>
<g><path style="opacity:0.23" fill="#000000" d="M 48.5,54.5 C 46.2817,51.2807 45.115,47.614 45,43.5C 44.8297,52.676 44.3297,61.676 43.5,70.5C 43.3335,59.1618 43.5001,47.8284 44,36.5C 46.0334,42.3669 47.5334,48.3669 48.5,54.5 Z"/></g>
<g><path style="opacity:0.298" fill="#000000" d="M 97.5,36.5 C 97.573,38.0269 96.9063,39.0269 95.5,39.5C 95.427,37.9731 96.0937,36.9731 97.5,36.5 Z"/></g>
<g><path style="opacity:0.004" fill="#000000" d="M 171.5,30.5 C 172.319,33.3054 172.819,36.3054 173,39.5C 173.728,36.8132 174.895,34.4799 176.5,32.5C 175.918,36.532 174.584,40.1987 172.5,43.5C 172.633,40.075 171.967,39.7417 170.5,42.5C 171.272,38.5483 171.605,34.5483 171.5,30.5 Z"/></g>
<g><path style="opacity:0.506" fill="#000000" d="M 248.5,33.5 C 249.924,35.5145 250.59,37.8478 250.5,40.5C 249.076,38.4855 248.41,36.1522 248.5,33.5 Z"/></g>
<g><path style="opacity:0.039" fill="#000000" d="M 121.5,41.5 C 122.919,40.5489 124.585,40.2155 126.5,40.5C 126.5,41.5 126.5,42.5 126.5,43.5C 125.221,42.032 123.554,41.3653 121.5,41.5 Z"/></g>
<g><path style="opacity:0.047" fill="#000000" d="M 212.5,38.5 C 214.104,39.287 214.771,40.6203 214.5,42.5C 213.326,41.4863 212.66,40.153 212.5,38.5 Z"/></g>
<g><path style="opacity:0.046" fill="#000000" d="M 299.5,22.5 C 299.244,24.7925 299.577,26.9592 300.5,29C 303.592,29.7358 306.592,29.5691 309.5,28.5C 309.917,33.4166 309.917,38.25 309.5,43C 310.167,45 310.833,47 311.5,49C 310.536,50.7255 309.869,52.5588 309.5,54.5C 310.573,56.3469 310.573,58.3469 309.5,60.5C 306.167,60.5 302.833,60.5 299.5,60.5C 299.5,62.1667 299.5,63.8333 299.5,65.5C 301.199,65.3398 302.866,65.5065 304.5,66C 303.756,67.0386 302.756,67.5386 301.5,67.5C 301.167,66.1667 300.833,66.1667 300.5,67.5C 299.596,68.209 299.263,69.209 299.5,70.5C 301.833,69.8333 304.167,69.1667 306.5,68.5C 307.609,69.29 308.942,69.79 310.5,70C 306.637,71.9231 302.637,72.4231 298.5,71.5C 298.17,56.1804 297.837,40.847 297.5,25.5C 297.942,24.2613 298.609,23.2613 299.5,22.5 Z"/></g>
<g><path style="opacity:1" fill="#000000" d="M 300.5,32.5 C 303.237,33.2129 305.904,33.2129 308.5,32.5C 309.521,33.0016 309.688,33.6683 309,34.5C 304.255,36.6569 304.422,38.3236 309.5,39.5C 306.232,40.487 302.898,40.8204 299.5,40.5C 299.279,37.7212 299.612,35.0545 300.5,32.5 Z"/></g>
<g><path style="opacity:0.396" fill="#000000" d="M 301.5,34.5 C 303.176,35.1834 303.843,36.5168 303.5,38.5C 302.5,38.5 301.5,38.5 300.5,38.5C 300.433,37.0413 300.766,35.7079 301.5,34.5 Z"/></g>
<g><path style="opacity:0.016" fill="#000000" d="M 120.5,41.5 C 118.485,42.9238 116.152,43.5905 113.5,43.5C 115.515,42.0762 117.848,41.4095 120.5,41.5 Z"/></g>
<g><path style="opacity:0.008" fill="#000000" d="M 170.5,42.5 C 170.5,43.1667 170.5,43.8333 170.5,44.5C 169.833,44.5 169.167,44.5 168.5,44.5C 168.833,43.5 169.5,42.8333 170.5,42.5 Z"/></g>
<g><path style="opacity:0.137" fill="#000000" d="M 254.5,37.5 C 254.143,41.263 253.31,44.9296 252,48.5C 251.51,47.2068 251.343,45.8734 251.5,44.5C 252.131,42.0248 253.131,39.6915 254.5,37.5 Z"/></g>
<g><path style="opacity:0.196" fill="#000000" d="M 172.5,43.5 C 172.125,45.6976 171.458,47.6976 170.5,49.5C 170.5,47.8333 170.5,46.1667 170.5,44.5C 171.167,44.1667 171.833,43.8333 172.5,43.5 Z"/></g>
<g><path style="opacity:0.584" fill="#000000" d="M 60.5,39.5 C 61.9238,41.5145 62.5905,43.8478 62.5,46.5C 61.0762,44.4855 60.4095,42.1522 60.5,39.5 Z"/></g>
<g><path style="opacity:0.322" fill="#000000" d="M 113.5,43.5 C 112.032,44.7791 111.365,46.4458 111.5,48.5C 108.318,45.1834 108.985,43.5167 113.5,43.5 Z"/></g>
<g><path style="opacity:0.022" fill="#000000" d="M 166.5,46.5 C 165.766,47.7079 165.433,49.0413 165.5,50.5C 159.183,49.0514 159.516,47.7181 166.5,46.5 Z"/></g>
<g><path style="opacity:0.957" fill="#000000" d="M 266.5,45.5 C 266.279,48.0673 265.612,50.4006 264.5,52.5C 264.338,50.4727 264.505,48.4727 265,46.5C 265.383,45.944 265.883,45.6107 266.5,45.5 Z"/></g>
<g><path style="opacity:0.616" fill="#000000" d="M 76.5,38.5 C 75.1667,43.5 75.1667,48.5 76.5,53.5C 75.0483,51.1524 74.3817,48.4857 74.5,45.5C 74.3161,42.7954 74.9827,40.4621 76.5,38.5 Z"/></g>
<g><path style="opacity:0.351" fill="#000000" d="M 189.5,44.5 C 189.281,45.675 189.614,46.675 190.5,47.5C 194.157,49.4377 196.157,48.4377 196.5,44.5C 197.931,45.7804 198.598,47.4471 198.5,49.5C 194.774,49.8226 191.107,49.4892 187.5,48.5C 187.994,46.9745 188.661,45.6412 189.5,44.5 Z"/></g>
<g><path style="opacity:1" fill="#000000" d="M 300.5,43.5 C 301.376,43.3691 302.043,43.7025 302.5,44.5C 301.691,46.0709 301.357,47.7376 301.5,49.5C 303.5,49.5 305.5,49.5 307.5,49.5C 306.986,47.4884 306.82,45.4884 307,43.5C 311.45,50.0751 309.617,52.9085 301.5,52C 299.265,49.4149 298.931,46.5815 300.5,43.5 Z"/></g>
<g><path style="opacity:0.043" fill="#000000" d="M 170.5,49.5 C 170.363,54.6768 169.03,55.3434 166.5,51.5C 168.062,51.2671 169.395,50.6005 170.5,49.5 Z"/></g>
<g><path style="opacity:0.322" fill="#000000" d="M 147.5,55.5 C 150.297,55.9666 151.631,57.6333 151.5,60.5C 150.197,58.8577 148.864,57.1911 147.5,55.5 Z"/></g>
<g><path style="opacity:0.09" fill="#000000" d="M 264.5,52.5 C 264.58,55.7814 263.913,58.7814 262.5,61.5C 262.42,58.2186 263.087,55.2186 264.5,52.5 Z"/></g>
<g><path style="opacity:1" fill="#000000" d="M 309.5,54.5 C 309.5,55.5 309.5,56.5 309.5,57.5C 306.167,57.5 302.833,57.5 299.5,57.5C 299.5,56.5 299.5,55.5 299.5,54.5C 302.833,54.5 306.167,54.5 309.5,54.5 Z"/></g>
<g><path style="opacity:0.165" fill="#000000" d="M 128.5,50.5 C 130.04,52.8383 130.706,55.5049 130.5,58.5C 129.232,56.0948 128.565,53.4282 128.5,50.5 Z"/></g>
<g><path style="opacity:0.439" fill="#000000" d="M 98.5,56.5 C 100.027,56.427 101.027,57.0937 101.5,58.5C 99.9731,58.573 98.9731,57.9063 98.5,56.5 Z"/></g>
<g><path style="opacity:0.129" fill="#000000" d="M 48.5,54.5 C 50.0395,56.8383 50.7062,59.5049 50.5,62.5C 49.2318,60.0948 48.5651,57.4282 48.5,54.5 Z"/></g>
<g><path style="opacity:0.255" fill="#000000" d="M 78.5,59.5 C 79.9063,59.9731 80.573,60.9731 80.5,62.5C 79.0937,62.0269 78.427,61.0269 78.5,59.5 Z"/></g>
<g><path style="opacity:0.718" fill="#000000" d="M 80.5,62.5 C 81.9063,62.9731 82.573,63.9731 82.5,65.5C 81.0937,65.0269 80.427,64.0269 80.5,62.5 Z"/></g>
<g><path style="opacity:0.014" fill="#000000" d="M 309.5,60.5 C 310.473,62.9479 310.806,65.6146 310.5,68.5C 309.5,68.5 308.5,68.5 307.5,68.5C 308.091,67.8485 308.757,67.1818 309.5,66.5C 306.885,65.2384 304.218,64.0718 301.5,63C 304.675,63.0533 307.342,62.22 309.5,60.5 Z"/></g>
<g><path style="opacity:0.89" fill="#000000" d="M 50.5,62.5 C 52.2798,63.9899 52.9465,65.9899 52.5,68.5C 51.2616,66.7857 50.595,64.7857 50.5,62.5 Z"/></g>
<g><path style="opacity:1" fill="#000000" d="M 309.5,60.5 C 307.342,62.22 304.675,63.0533 301.5,63C 304.218,64.0718 306.885,65.2384 309.5,66.5C 308.757,67.1818 308.091,67.8485 307.5,68.5C 307.167,68.5 306.833,68.5 306.5,68.5C 304.167,69.1667 301.833,69.8333 299.5,70.5C 299.263,69.209 299.596,68.209 300.5,67.5C 300.833,67.5 301.167,67.5 301.5,67.5C 302.756,67.5386 303.756,67.0386 304.5,66C 302.866,65.5065 301.199,65.3398 299.5,65.5C 299.5,63.8333 299.5,62.1667 299.5,60.5C 302.833,60.5 306.167,60.5 309.5,60.5 Z"/></g>
<g><path style="opacity:0.224" fill="#000000" d="M 240.5,60.5 C 242.04,62.8383 242.706,65.5049 242.5,68.5C 240.96,66.1617 240.294,63.4951 240.5,60.5 Z"/></g>
<g><path style="opacity:0.238" fill="#000000" d="M 85.5,67.5 C 87.1998,68.016 88.5331,69.016 89.5,70.5C 83.3333,70.8333 77.1667,71.1667 71,71.5C 64.462,71.4962 58.2953,70.8296 52.5,69.5C 64.0907,70.6439 75.7574,70.8106 87.5,70C 86.244,69.5831 85.5774,68.7498 85.5,67.5 Z"/></g>
<g><path style="opacity:0.221" fill="#000000" d="M 141.5,55.5 C 141.5,60.8333 141.5,66.1667 141.5,71.5C 133.16,71.6664 124.827,71.4997 116.5,71C 118.867,69.1552 121.533,67.9886 124.5,67.5C 123.653,68.9663 122.32,69.7996 120.5,70C 127.158,70.4996 133.825,70.6663 140.5,70.5C 140.179,65.3054 140.513,60.3054 141.5,55.5 Z"/></g>
<g><path style="opacity:0.24" fill="#000000" d="M 202.5,68.5 C 201.262,66.7857 200.595,64.7857 200.5,62.5C 195.456,62.1725 190.456,62.5059 185.5,63.5C 184.215,66.0205 183.548,68.6872 183.5,71.5C 173.167,71.5 162.833,71.5 152.5,71.5C 152.5,69.5 152.5,67.5 152.5,65.5C 153.451,66.9187 153.784,68.5853 153.5,70.5C 163.167,70.5 172.833,70.5 182.5,70.5C 182.548,67.6872 183.215,65.0205 184.5,62.5C 190.167,61.1667 195.833,61.1667 201.5,62.5C 202.348,64.4086 202.682,66.4086 202.5,68.5 Z"/></g>
<g><path style="opacity:0.242" fill="#000000" d="M 260.5,69.5 C 257.913,70.8164 254.913,71.483 251.5,71.5C 248.314,71.498 245.314,71.1647 242.5,70.5C 248.591,70.7886 254.591,70.4553 260.5,69.5 Z"/></g>
</svg>
