<?xml version="1.0" encoding="UTF-8"?>
<!DOCTYPE svg PUBLIC "-//W3C//DTD SVG 1.1//EN" "http://www.w3.org/Graphics/SVG/1.1/DTD/svg11.dtd">
<svg xmlns="http://www.w3.org/2000/svg" version="1.1" width="1075px" height="305px" style="shape-rendering:geometricPrecision; text-rendering:geometricPrecision; image-rendering:optimizeQuality; fill-rule:evenodd; clip-rule:evenodd" xmlns:xlink="http://www.w3.org/1999/xlink">
<g><path style="opacity:0.932" fill="#000000" d="M 319.5,20.5 C 331.838,20.3335 344.171,20.5001 356.5,21C 345.535,33.6334 334.202,45.9667 322.5,58C 313.833,58.6667 305.167,58.6667 296.5,58C 304.303,45.5556 311.97,33.0556 319.5,20.5 Z"/></g>
<g><path style="opacity:0.973" fill="#000000" d="M 64.5,304.5 C 57.5,304.5 50.5,304.5 43.5,304.5C 16.5234,298.847 1.85674,282.181 -0.5,254.5C -0.5,246.833 -0.5,239.167 -0.5,231.5C 11.5,231.5 23.5,231.5 35.5,231.5C 35.3336,240.173 35.5002,248.84 36,257.5C 39.2362,267.375 46.0696,271.542 56.5,270C 64.6667,268.5 69.5,263.667 71,255.5C 72.8461,242.55 69.8461,230.884 62,220.5C 49,206.167 35.3333,192.5 21,179.5C 0.853575,155.18 -4.47976,127.846 5,97.5C 11.6234,80.2112 24.1234,70.3779 42.5,68C 89.423,64.4221 111.423,86.2554 108.5,133.5C 96.8333,133.5 85.1667,133.5 73.5,133.5C 74.4406,124.055 72.9406,115.055 69,106.5C 63.3444,101.807 56.8444,100.307 49.5,102C 40.7528,106.393 36.7528,113.56 37.5,123.5C 38.3428,135.184 42.5094,145.517 50,154.5C 62.4742,167.063 75.1408,179.396 88,191.5C 109.227,216.31 114.561,244.31 104,275.5C 96.0133,292.332 82.8466,301.999 64.5,304.5 Z"/></g>
<g><path style="opacity:0.981" fill="#000000" d="M 766.5,304.5 C 759.167,304.5 751.833,304.5 744.5,304.5C 721.137,300.888 706.637,287.554 701,264.5C 699.356,213.871 699.023,163.204 700,112.5C 705.433,81.9278 723.766,66.9278 755,67.5C 787.311,67.4778 805.645,83.4778 810,115.5C 810.667,162.5 810.667,209.5 810,256.5C 807.097,283.227 792.597,299.227 766.5,304.5 Z M 748.5,101.5 C 754.892,100.791 760.892,101.957 766.5,105C 769.515,107.863 771.349,111.363 772,115.5C 772.667,162.833 772.667,210.167 772,257.5C 769.572,266.307 763.738,270.641 754.5,270.5C 744.4,269.902 738.566,264.568 737,254.5C 736.333,208.833 736.333,163.167 737,117.5C 738.037,109.989 741.871,104.656 748.5,101.5 Z"/></g>
<g><path style="opacity:0.975" fill="#000000" d="M 156.5,69.5 C 174.5,69.5 192.5,69.5 210.5,69.5C 222.647,146.865 234.981,224.199 247.5,301.5C 234.833,301.5 222.167,301.5 209.5,301.5C 207.608,287.814 205.608,274.148 203.5,260.5C 188.833,260.5 174.167,260.5 159.5,260.5C 157.932,273.907 155.932,287.24 153.5,300.5C 142.186,301.499 130.853,301.832 119.5,301.5C 131.402,224.088 143.735,146.754 156.5,69.5 Z M 180.5,116.5 C 181.725,117.152 182.392,118.319 182.5,120C 187.696,155.539 193.029,191.039 198.5,226.5C 187.167,227.833 175.833,227.833 164.5,226.5C 170.299,189.909 175.632,153.243 180.5,116.5 Z"/></g>
<g><path style="opacity:0.981" fill="#000000" d="M 328.5,304.5 C 320.167,304.5 311.833,304.5 303.5,304.5C 280.887,300.052 267.387,286.386 263,263.5C 261.525,198.861 261.025,134.195 261.5,69.5C 273.833,69.5 286.167,69.5 298.5,69.5C 298.333,130.168 298.5,190.834 299,251.5C 300.738,267.957 309.571,273.791 325.5,269C 330.97,266.185 334.137,261.685 335,255.5C 335.5,193.501 335.667,131.501 335.5,69.5C 347.167,69.5 358.833,69.5 370.5,69.5C 370.667,133.168 370.5,196.834 370,260.5C 366.175,284.82 352.341,299.487 328.5,304.5 Z"/></g>
<g><path style="opacity:0.977" fill="#000000" d="M 394.5,69.5 C 418.864,69.0825 443.198,69.5825 467.5,71C 492.752,76.6205 505.918,92.4538 507,118.5C 507.167,140.833 507.333,163.167 507.5,185.5C 507.627,210.527 507.127,235.527 506,260.5C 502.472,284.028 488.972,297.528 465.5,301C 441.836,301.5 418.169,301.667 394.5,301.5C 394.5,224.167 394.5,146.833 394.5,69.5 Z M 431.5,103.5 C 440.9,103.114 450.234,103.614 459.5,105C 463.667,106.5 466.5,109.333 468,113.5C 469.152,137.439 469.652,161.439 469.5,185.5C 469.333,208.5 469.167,231.5 469,254.5C 467.693,260.477 464.193,264.643 458.5,267C 449.506,267.5 440.506,267.666 431.5,267.5C 431.5,212.833 431.5,158.167 431.5,103.5 Z"/></g>
<g><path style="opacity:0.98" fill="#000000" d="M 529.5,69.5 C 562.833,69.5 596.167,69.5 629.5,69.5C 629.5,80.8333 629.5,92.1667 629.5,103.5C 608.5,103.5 587.5,103.5 566.5,103.5C 566.5,124.833 566.5,146.167 566.5,167.5C 583.167,167.5 599.833,167.5 616.5,167.5C 616.5,178.833 616.5,190.167 616.5,201.5C 599.833,201.5 583.167,201.5 566.5,201.5C 566.5,223.5 566.5,245.5 566.5,267.5C 587.5,267.5 608.5,267.5 629.5,267.5C 629.5,278.833 629.5,290.167 629.5,301.5C 596.167,301.5 562.833,301.5 529.5,301.5C 529.5,224.167 529.5,146.833 529.5,69.5 Z"/></g>
<g><path style="opacity:0.977" fill="#000000" d="M 832.5,69.5 C 848.167,69.5 863.833,69.5 879.5,69.5C 890.861,114.611 902.694,159.611 915,204.5C 915.5,159.501 915.667,114.501 915.5,69.5C 926.5,69.5 937.5,69.5 948.5,69.5C 948.5,146.833 948.5,224.167 948.5,301.5C 935.816,301.832 923.149,301.499 910.5,300.5C 895.69,246.593 881.19,192.593 867,138.5C 866.5,192.832 866.333,247.166 866.5,301.5C 855.167,301.5 843.833,301.5 832.5,301.5C 832.5,224.167 832.5,146.833 832.5,69.5 Z"/></g>
<g><path style="opacity:0.968" fill="#000000" d="M 1074.5,69.5 C 1074.5,80.8333 1074.5,92.1667 1074.5,103.5C 1053.5,103.5 1032.5,103.5 1011.5,103.5C 1011.5,124.833 1011.5,146.167 1011.5,167.5C 1028.17,167.5 1044.83,167.5 1061.5,167.5C 1061.5,178.833 1061.5,190.167 1061.5,201.5C 1044.83,201.5 1028.17,201.5 1011.5,201.5C 1011.5,223.5 1011.5,245.5 1011.5,267.5C 1032.5,267.5 1053.5,267.5 1074.5,267.5C 1074.5,278.833 1074.5,290.167 1074.5,301.5C 1040.83,301.5 1007.17,301.5 973.5,301.5C 973.5,224.167 973.5,146.833 973.5,69.5C 1007.17,69.5 1040.83,69.5 1074.5,69.5 Z"/></g>
</svg>
