<?xml version="1.0" encoding="UTF-8"?>
<!DOCTYPE svg PUBLIC "-//W3C//DTD SVG 1.1//EN" "http://www.w3.org/Graphics/SVG/1.1/DTD/svg11.dtd">
<svg xmlns="http://www.w3.org/2000/svg" version="1.1" width="162px" height="70px" style="shape-rendering:geometricPrecision; text-rendering:geometricPrecision; image-rendering:optimizeQuality; fill-rule:evenodd; clip-rule:evenodd" xmlns:xlink="http://www.w3.org/1999/xlink">
<g><path style="opacity:0.904" fill="#00000" d="M 13.5,-0.5 C 17.5,-0.5 21.5,-0.5 25.5,-0.5C 25.3354,2.51838 25.502,5.51838 26,8.5C 30.3221,5.60095 34.4887,2.60095 38.5,-0.5C 39.5,-0.5 40.5,-0.5 41.5,-0.5C 54.2266,8.22018 67.2266,16.5535 80.5,24.5C 80.5,28.8333 80.5,33.1667 80.5,37.5C 66.8834,29.0568 53.3834,20.3902 40,11.5C 26.6166,20.3902 13.1166,29.0568 -0.5,37.5C -0.5,33.5 -0.5,29.5 -0.5,25.5C 4.05741,22.6343 8.55741,19.6343 13,16.5C 13.4994,10.8431 13.6661,5.17645 13.5,-0.5 Z"/></g>
<g><path style="opacity:0.921" fill="#00000" d="M 75.5,69.5 C 51.8333,69.5 28.1667,69.5 4.5,69.5C 4.33349,58.495 4.50015,47.495 5,36.5C 16.4105,28.7556 28.0771,21.4223 40,14.5C 51.9229,21.4223 63.5895,28.7556 75,36.5C 75.4998,47.495 75.6665,58.495 75.5,69.5 Z M 29.5,31.5 C 35.4877,31.664 36.821,34.164 33.5,39C 27.2016,39.4954 25.8682,36.9954 29.5,31.5 Z M 46.5,31.5 C 52.4877,31.664 53.821,34.164 50.5,39C 44.4034,39.1475 43.0701,36.6475 46.5,31.5 Z M 13.5,40.5 C 15.288,40.2148 16.9547,40.5481 18.5,41.5C 26.0742,56.6357 37.4076,60.469 52.5,53C 56.6833,49.8262 59.6833,45.8262 61.5,41C 64.5667,39.8358 66.2334,40.8358 66.5,44C 59.9406,59.7804 48.2739,65.7804 31.5,62C 22.722,58.3892 16.3887,52.2226 12.5,43.5C 13.1272,42.5832 13.4606,41.5832 13.5,40.5 Z"/></g>
</svg>
